<?xml version="1.0" encoding="UTF-8"?>
<svg width="16px" height="16px" viewBox="0 0 16 16" version="1.1" xmlns="http://www.w3.org/2000/svg" xmlns:xlink="http://www.w3.org/1999/xlink">
    <!-- Generator: sketchtool 56.3 (101010) - https://sketch.com -->
    <title>5A230096-EBD9-466B-ADD0-D72D273DE10A@1.00x</title>
    <desc>Created with sketchtool.</desc>
    <defs>
        <polygon id="path-1" points="0 0 15.6981132 0 15.6981132 15.9998792 0 15.9998792"></polygon>
    </defs>
    <g id="Home-(Default)" stroke="none" stroke-width="1" fill="none" fill-rule="evenodd">
        <g id="Default" transform="translate(-764.000000, -139.000000)">
            <g id="Calendar-Icon" transform="translate(764.000000, 139.000000)">
                <mask id="mask-2" fill="white">
                    <use xlink:href="#path-1"></use>
                </mask>
                <g id="Clip-2"></g>
                <path d="M10.8679245,0.606369811 C10.8679245,0.271577358 11.1390189,-0.000120754717 11.4710943,-0.000120754717 L12.0760755,-0.000120754717 C12.4090566,-0.000120754717 12.6792453,0.272483019 12.6792453,0.606369811 L12.6792453,3.01633208 C12.6792453,3.35112453 12.4081509,3.62252075 12.0760755,3.62252075 L11.4710943,3.62252075 C11.1381132,3.62252075 10.8679245,3.35021887 10.8679245,3.01633208 L10.8679245,0.606369811 Z M3.01886792,0.606369811 C3.01886792,0.271577358 3.28996226,-0.000120754717 3.62203774,-0.000120754717 L4.22701887,-0.000120754717 C4.56,-0.000120754717 4.83018868,0.272483019 4.83018868,0.606369811 L4.83018868,3.01633208 C4.83018868,3.35112453 4.55909434,3.62252075 4.22701887,3.62252075 L3.62203774,3.62252075 C3.2890566,3.62252075 3.01886792,3.35021887 3.01886792,3.01633208 L3.01886792,0.606369811 Z M0.905660377,6.64108679 C0.905660377,6.47444528 1.04301887,6.33950189 1.20875472,6.33950189 L14.4893585,6.33950189 C14.6569057,6.33950189 14.7924528,6.47716226 14.7924528,6.64108679 L14.7924528,14.7929358 C14.7924528,14.9592755 14.6550943,15.0942189 14.4893585,15.0942189 L1.20875472,15.0942189 C1.04120755,15.0942189 0.905660377,14.9568604 0.905660377,14.7929358 L0.905660377,6.64108679 Z M13.2830189,1.50931321 L14.4923774,1.50931321 C15.1583396,1.50931321 15.6981132,2.0512 15.6981132,2.71987925 L15.6981132,14.7893132 C15.6981132,15.4579925 15.1577358,15.9998792 14.4923774,15.9998792 L1.20573585,15.9998792 C0.539773585,15.9998792 0,15.4582943 0,14.7893132 L0,2.71987925 C0,2.05150189 0.540377358,1.50931321 1.20573585,1.50931321 L2.41509434,1.50931321 L2.41509434,3.01663396 C2.41509434,3.68682264 2.95698113,4.22629434 3.62566038,4.22629434 L4.22339623,4.22629434 C4.89418868,4.22629434 5.43396226,3.68470943 5.43396226,3.01663396 L5.43396226,1.50931321 L10.2641509,1.50931321 L10.2641509,3.01663396 C10.2641509,3.68682264 10.8060377,4.22629434 11.474717,4.22629434 L12.0724528,4.22629434 C12.7432453,4.22629434 13.2830189,3.68470943 13.2830189,3.01663396 L13.2830189,1.50931321 Z M5.73554717,9.9621434 L5.73554717,8.75701132 C5.73554717,8.5882566 5.63169811,8.53935094 5.50369811,8.64591698 L3.25071698,10.5239547 C3.12211321,10.6311245 3.12271698,10.8035019 3.25071698,10.9100679 L5.50369811,12.7881057 C5.63230189,12.8952755 5.73554717,12.8451623 5.73554717,12.6770113 L5.73554717,11.4715774 L9.96226415,11.4715774 L9.96226415,12.6770113 C9.96226415,12.8451623 10.0655094,12.8952755 10.1941132,12.7881057 L12.4473962,10.9100679 C12.5753962,10.8035019 12.576,10.6311245 12.4473962,10.5239547 L10.1941132,8.64591698 C10.0661132,8.53935094 9.96226415,8.5882566 9.96226415,8.75701132 L9.96226415,9.9621434 L5.73554717,9.9621434 Z" id="Fill-1" fill="#FB7E23" mask="url(#mask-2)"></path>
            </g>
        </g>
    </g>
</svg>