<?xml version="1.0" encoding="UTF-8"?>
<svg width="80px" height="51px" viewBox="0 0 80 51" version="1.1" xmlns="http://www.w3.org/2000/svg" xmlns:xlink="http://www.w3.org/1999/xlink">
    <!-- Generator: sketchtool 57.1 (101010) - https://sketch.com -->
    <title>E3BA7214-2BAE-4970-B81F-39C54AAA10AB@1.00x</title>
    <desc>Created with sketchtool.</desc>
    <g id="Symbols" stroke="none" stroke-width="1" fill="none" fill-rule="evenodd">
        <g id="UI-/-Left-Sidebar" transform="translate(-16.000000, -60.000000)" fill="#FB7E23">
            <path d="M89.1672,106.81842 L89.1672,111 L17.0224,111 L17.0224,106.81842 L89.1672,106.81842 Z M90.052,73.8160801 L90.052,105.948053 L16.1368,105.948053 L16.1368,73.8160801 L90.052,73.8160801 Z M78.7472,90.24883 L58.8848,90.24883 L58.8848,101.838871 L78.7472,101.838871 L78.7472,90.24883 Z M78.12,90.8725665 L78.12,101.215135 L59.512,101.215135 L59.512,90.8725665 L78.12,90.8725665 Z M48.644,79.5068794 L20.7744,79.5068794 L20.7744,82.0742231 L19.732,82.0742231 L19.732,84.4951797 L20.7744,84.4951797 L20.7744,96.0494197 L19.572,96.0494197 L19.572,98.4703763 L20.7744,98.4703763 L20.7744,101.03772 L48.644,101.03772 L48.644,79.5068794 Z M47.6552,80.75117 L47.6552,100.118027 L22.1312,100.118027 L22.1312,80.75117 L47.6552,80.75117 Z M34.0696,97.9954137 L24.26,97.9954137 L24.26,98.651769 L34.0696,98.651769 L34.0696,97.9954137 Z M34.0696,96.2896855 L24.26,96.2896855 L24.26,96.9452452 L34.0696,96.9452452 L34.0696,96.2896855 Z M34.0696,94.5831617 L24.26,94.5831617 L24.26,95.239517 L34.0696,95.239517 L34.0696,94.5831617 Z M34.0696,92.8774335 L24.26,92.8774335 L24.26,93.5337888 L34.0696,93.5337888 L34.0696,92.8774335 Z M71.076,91.8535193 L67.3136,91.8535193 L67.3136,93.1741857 L71.076,93.1741857 L71.076,91.8535193 Z M34.0696,91.1709098 L24.26,91.1709098 L24.26,91.8272651 L34.0696,91.8272651 L34.0696,91.1709098 Z M46.9168,88.9679427 L45.884,88.9679427 L45.884,91.60848 L46.9168,91.60848 L46.9168,88.9679427 Z M34.0696,89.4651816 L24.26,89.4651816 L24.26,90.1215369 L34.0696,90.1215369 L34.0696,89.4651816 Z M78.028,75.2552883 L59.7736,75.2552883 L59.7736,88.6441408 L78.028,88.6441408 L78.028,75.2552883 Z M77.4008,75.8790247 L77.4008,88.0196088 L60.4008,88.0196088 L60.4008,75.8790247 L77.4008,75.8790247 Z M65.992,77.2689068 L62.2264,77.2689068 L62.2264,80.1624392 L65.992,80.1624392 L65.992,77.2689068 Z M70.7832,77.2689068 L67.0184,77.2689068 L67.0184,80.1624392 L70.7832,80.1624392 L70.7832,77.2689068 Z M75.576,77.2689068 L71.8112,77.2689068 L71.8112,80.1624392 L75.576,80.1624392 L75.576,77.2689068 Z M68.908,78.4057937 C69.51504,78.4057937 70.0147591,78.8625074 70.0786904,79.4492817 L70.0856,79.5768907 L67.7304,79.5768907 C67.7304,78.9300824 68.2584,78.4057937 68.908,78.4057937 Z M73.6928,78.4057937 C74.3005867,78.4057937 74.8003556,78.8625074 74.8636404,79.4492817 L74.8704009,79.5768907 L72.5144,79.5768907 C72.5144,78.9300824 73.0424,78.4057937 73.6928,78.4057937 Z M64.1168,78.4057937 C64.72384,78.4057937 65.2235591,78.8625074 65.2874904,79.4492817 L65.2944,79.5768907 L62.9384,79.5768907 C62.9384,78.9300824 63.4664,78.4057937 64.1168,78.4057937 Z M45.468,65.775131 L45.468,70.8374204 L42.5264,70.8374204 L42.5264,73.4493167 L41.3752,73.4493167 L41.3752,70.8374204 L29.7936,70.8374204 L29.7936,73.4493167 L28.6424,73.4493167 L28.6424,70.8374204 L26.3688,70.8374204 L26.3688,65.775131 L45.468,65.775131 Z M50.7416,71.1572445 L50.7416,73.355438 L46.0448,73.355438 L46.0448,71.1572445 L50.7416,71.1572445 Z M90.2456,71.4070573 L90.2456,73.1549513 L79.4576,73.1549513 L79.4576,71.4070573 L90.2456,71.4070573 Z M46.0696,66.1912205 C48.5779333,66.1912205 50.6250012,68.1569408 50.7360568,70.6239715 L50.7408002,70.8366249 L46.0696,70.8366249 L46.0696,66.1912205 Z M90.188,60 L90.188,70.6711438 L79.4576,70.6711438 C79.4576,64.777471 84.2616,60 90.188,60 Z M96,60.0469393 L93.6928,70.6711438 L91.14,70.6711438 L91.14,60.0469393 L96,60.0469393 Z M25.9592,66.7664264 L25.9592,69.9439817 L16,69.9439817 L16,66.7664264 L25.9592,66.7664264 Z" id="Combined-Shape"></path>
        </g>
    </g>
</svg>