<?xml version="1.0" encoding="UTF-8"?>
<svg width="144px" height="144px" viewBox="0 0 144 144" version="1.1" xmlns="http://www.w3.org/2000/svg" xmlns:xlink="http://www.w3.org/1999/xlink">
    <!-- Generator: sketchtool 56.3 (101010) - https://sketch.com -->
    <title>F901B18D-F607-47E5-834E-89F37AC57BFF@1.00x</title>
    <desc>Created with sketchtool.</desc>
    <g id="Home-(Default)" stroke="none" stroke-width="1" fill="none" fill-rule="evenodd">
        <g id="Default" transform="translate(-160.000000, -401.000000)">
            <g id="Group" transform="translate(160.000000, 401.000000)">
                <path d="M19.2871648,119.363787 C19.7559204,118.956714 19.8062651,118.246828 19.3996515,117.77767 C7.02120627,103.646211 0.918558214,85.0899331 2.49290888,66.3694605 C2.86129402,61.8014448 3.67506303,57.2803463 4.92262039,52.8705872 C5.05809691,52.47722 4.96540357,52.0411955 4.68162605,51.7369628 C4.39784853,51.43273 3.96933041,51.3099731 3.56751746,51.4178058 C3.16570452,51.5256386 2.85621665,51.8464508 2.76287683,52.2518888 C1.4772167,56.7902184 0.637091598,61.4430933 0.254424668,66.1444793 C-1.38089617,85.4779029 4.91721203,104.644969 17.7011031,119.240048 C18.1081623,119.70882 18.8180227,119.759166 19.2871648,119.352538 L19.2871648,119.363787 Z" id="Path" fill="#FB7E23"></path>
                <path d="M72.909548,141.73817 L72.909548,141.73817 C70.7498044,141.73817 68.5450662,141.73817 66.3628253,141.513189 C51.4313308,140.339984 37.284053,134.351653 26.0476121,124.448363 C25.7493359,124.161856 25.3179008,124.062142 24.9241611,124.18871 C24.5304214,124.315278 24.2378906,124.647712 24.1624148,125.054362 C24.086939,125.461012 24.2406931,125.876283 24.5627884,126.135722 C36.1626099,136.359848 50.7680123,142.541704 66.1828466,143.751752 C68.1513629,143.909239 70.1423765,143.987982 72.0996441,143.987982 L72.9432939,143.987982 C73.5645405,143.987982 74.0681604,143.484344 74.0681604,142.863076 C74.0681604,142.241807 73.5645405,141.73817 72.9432939,141.73817 L72.909548,141.73817 Z" id="Path" fill="#FB7E23"></path>
                <path d="M87.3303357,140.050811 C85.643036,140.433279 83.9557364,140.748253 82.2346907,140.995732 C81.6134442,141.039221 81.1450778,141.578113 81.1885651,142.199381 C81.2320523,142.82065 81.7709255,143.289033 82.392172,143.245544 L82.560902,143.245544 C84.3156936,142.986816 86.0817339,142.660593 87.8252769,142.266876 C88.4465235,142.130197 88.839347,141.515759 88.7026728,140.89449 C88.5659985,140.273222 87.9515823,139.880384 87.3303357,140.017064 L87.3303357,140.050811 Z" id="Path" fill="#FB7E23"></path>
                <path d="M140.705248,83.8055052 C140.078281,87.4333257 139.168105,91.0064577 137.983071,94.4921133 C137.781619,95.079184 138.093711,95.718492 138.680489,95.920744 C138.796621,95.9589283 138.918201,95.9779259 139.040446,95.9770223 C139.524044,95.9782377 139.954319,95.6702406 140.109069,95.2120532 C141.335552,91.5980706 142.275841,87.8932002 142.921235,84.131728 C146.346174,64.6573043 141.535251,44.6348512 129.636562,28.8425927 C129.395437,28.5210804 129.001109,28.3526344 128.602118,28.4007066 C128.203127,28.4487788 127.86009,28.7060659 127.702225,29.0756503 C127.54436,29.4452347 127.59565,29.8709678 127.836776,30.19248 C139.375953,45.505265 144.03673,64.923137 140.705248,83.8055052 Z" id="Path" fill="#FB7E23"></path>
                <path d="M72.7295693,2.24981222 C76.436257,2.29620904 80.1335205,2.63472934 83.7870064,3.26222772 C94.5804491,5.08210523 104.786327,9.44298739 113.562221,15.9849158 C114.059342,16.2980623 114.713716,16.1758715 115.064341,15.7044263 C115.414966,15.2329811 115.343728,14.5710961 114.900812,14.185066 C105.840575,7.4286874 95.3028703,2.92503809 84.1582123,1.04616268 C80.3895749,0.398137526 76.5757036,0.0483322562 72.7520666,-1.95399252e-14 L72.7520666,-1.95399252e-14 C72.1308201,-1.95399252e-14 71.6272002,0.503637621 71.6272002,1.12490611 C71.6272002,1.7461746 72.1308201,2.24981222 72.7520666,2.24981222 L72.7295693,2.24981222 Z" id="Path" fill="#FB7E23"></path>
                <path d="M56.9701905,3.8471789 L57.2064125,3.8471789 C59.0174474,3.45346176 60.8734771,3.12723899 62.7070094,2.8910087 C63.3282559,2.8102438 63.7664052,2.24113329 63.6856432,1.6198648 C63.6048811,0.998596309 63.0357907,0.560431579 62.4145441,0.641196483 C60.5135198,0.899924888 58.6124955,1.22614766 56.7902119,1.63111386 C56.1689653,1.69634705 55.7182255,2.25286662 55.7834564,2.87413511 C55.8486873,3.4954036 56.4051873,3.94615927 57.0264338,3.88092608 L56.9701905,3.8471789 Z" id="Path" fill="#FB7E23"></path>
                <path d="M34.7878243,60.4524544 C31.2266678,63.94584 28.3030727,68.0344492 26.1488501,72.533946 C26.0064743,72.8669246 26.0331061,73.2480866 26.220403,73.5580293 C26.4076999,73.867972 26.7327536,74.0687864 27.0937379,74.0975655 L45.8902561,75.6836831 C45.1572997,78.0846687 44.69326,80.5596342 44.5066704,83.0630672 C44.4860905,83.3852267 44.6049018,83.7007021 44.8328816,83.9292449 L51.6720696,90.768674 L48.2974703,94.1433924 C47.9764602,94.418308 47.8366328,94.8499666 47.9354768,95.2608954 C48.0343209,95.6718243 48.3551539,95.9926686 48.7660683,96.0915162 C49.1769826,96.1903637 49.608626,96.0505314 49.8835319,95.72951 L53.2581313,92.3547916 L60.0973192,99.1942208 C60.3096027,99.404788 60.5969815,99.5221723 60.8959744,99.5204436 L60.9634664,99.5204436 C63.466799,99.3337552 65.9416672,98.8697011 68.3425902,98.136809 L69.9286519,116.990235 C69.9574299,117.351232 70.1582373,117.676298 70.468169,117.863601 C70.7781008,118.050905 71.1592493,118.077537 71.4922162,117.935157 C75.9924982,115.782456 80.0812262,112.85857 83.5732818,109.295878 C97.3641443,95.4370344 98.5565028,91.2973799 96.8017111,80.5995228 C97.4991283,79.9358282 98.1965455,79.2721336 98.8939627,78.5746918 C109.44521,68.0230725 118.320406,50.9582468 122.718634,37.7630981 C122.816883,37.594138 122.878223,37.4062788 122.898612,37.2118941 C125.755773,28.4601246 126.599423,21.4632086 124.563415,19.4721248 C121.458783,16.3673839 109.27648,19.7533513 99.8163532,23.6005302 C86.1492259,29.1350683 73.6407111,36.9869129 65.4966781,45.1312331 C64.8105096,45.8174259 64.1355897,46.5148677 63.4719185,47.2235585 C52.729444,45.468705 48.5899355,46.6611054 34.7878243,60.4524544 Z M28.8822755,71.993991 C30.8885729,68.3364165 33.4117351,64.9872362 36.373886,62.049821 C49.3998394,49.0234083 53.2468826,47.9659965 61.6158889,49.2146423 C54.5854737,57.0889851 49.3323474,65.6495206 46.5876733,73.4788671 L28.8822755,71.993991 Z M71.0760157,71.3527946 L66.4640633,75.9649096 C63.0894639,72.5901913 59.8498486,69.5529448 57.2851531,67.2918835 C56.0690874,66.1520534 54.7802775,65.0924114 53.4268612,64.1196483 C54.5217312,62.2448048 55.7328374,60.3699612 57.0601798,58.4951177 C58.6124955,59.6200238 63.5619078,63.8721689 71.0872643,71.3527946 L71.0760157,71.3527946 Z M79.7937306,90.6336853 C78.6688641,88.732594 75.5192381,85.0654 68.0501249,77.5510272 L72.6620773,72.9389122 C80.1536878,80.4645341 84.4506776,85.4141209 85.4968034,86.9664914 C83.5995287,88.3088793 81.7022539,89.5312773 79.8049792,90.6336853 L79.7937306,90.6336853 Z M46.7901492,82.6918482 C47.2513445,77.697265 49.1523688,71.993991 52.3132435,66.1332302 C56.7478291,69.6589231 60.9451821,73.473125 64.8780016,77.5510272 L53.2693799,89.1713074 L46.7901492,82.6918482 Z M54.8554416,90.757425 L66.4640633,79.1483939 C70.5451678,83.0775073 74.3629835,87.2712402 77.8927063,91.7023461 C71.9984061,94.8745813 66.3740739,96.8206689 61.3346723,97.2368842 L54.8554416,90.757425 Z M81.9759714,107.631017 C79.0294039,110.600223 75.6687319,113.127447 71.9984061,115.13414 L70.5473284,97.4281182 C78.4213935,94.6945964 86.9253838,89.4300358 94.8106975,82.3993726 C96.0480506,90.7236778 94.9906761,94.627102 81.9759714,107.642266 L81.9759714,107.631017 Z M122.966104,21.0132461 C124.090971,22.1381522 123.50604,27.1102373 121.503778,33.9721645 L121.222561,33.5784474 C119.678466,31.5373251 117.986619,29.6123123 116.160663,27.8189281 C114.244202,25.8141717 112.142611,23.9949881 109.883908,22.3856316 C117.44301,20.24831 122.021217,20.1245703 122.966104,21.0582424 L122.966104,21.0132461 Z M67.0377451,46.7285998 C74.9793022,38.7867627 87.2066004,31.1261521 100.615008,25.6928556 C102.763503,24.8266779 104.765765,24.0842398 106.621795,23.4430433 C106.773877,23.4748977 106.930909,23.4748977 107.08299,23.4430433 C107.915392,23.7242699 110.693812,25.6141121 114.563352,29.4837891 C118.432893,33.3534662 120.31142,36.1094861 120.603885,36.9531657 C116.610609,49.158397 108.612809,65.7057659 97.2966523,77.0223214 C94.1578888,80.1622194 90.797095,83.0720025 87.2403464,85.7290947 C85.9692473,83.7042637 82.5496533,79.710847 74.2593877,71.3865417 L80.4911477,65.1545619 C80.8733513,64.7082438 80.8476542,64.0429362 80.4321634,63.6274307 C80.0166725,63.2119252 79.3513884,63.1862273 78.9050861,63.5684443 L72.673326,69.7441788 C68.9500181,66.0432377 65.3841915,62.6572703 62.549528,60.1599788 C61.2217966,58.9253405 59.8206581,57.7720839 58.3537762,56.706517 C61.0066766,53.1776116 63.9087476,49.8431197 67.0377451,46.7285998 L67.0377451,46.7285998 Z" id="Shape" fill="#000000" fill-rule="nonzero"></path>
                <path d="M44.652903,99.3742058 C44.214163,98.9380531 43.5055814,98.9380531 43.0668413,99.3742058 L18.6122449,123.829665 C18.3289223,124.123044 18.2236322,124.545295 18.3360363,124.937358 C18.4484405,125.329421 18.761462,125.631734 19.1571888,125.730417 C19.5529156,125.8291 19.9712273,125.709162 20.25455,125.415782 L44.652903,100.971572 C44.8658545,100.760353 44.9856366,100.472831 44.9856366,100.172889 C44.9856366,99.8729469 44.8658545,99.5854256 44.652903,99.3742058 L44.652903,99.3742058 Z" id="Path" fill="#FB7E23"></path>
                <path d="M40.0521993,85.2228869 C39.6134592,84.7867343 38.9048776,84.7867343 38.4661376,85.2228869 L24.7540157,98.9917377 C24.4330056,99.2666534 24.2931782,99.6983119 24.3920223,100.109241 C24.4908663,100.52017 24.8116994,100.841014 25.2226137,100.939861 C25.6335281,101.038709 26.0651714,100.898877 26.3400774,100.577855 L40.0521993,86.8090045 C40.4883365,86.370249 40.4883365,85.6616424 40.0521993,85.2228869 Z" id="Path" fill="#FB7E23"></path>
                <path d="M44.2591998,119.645033 C44.5581926,119.646743 44.8455714,119.529358 45.0578549,119.318791 L58.8037228,105.561189 C59.1859263,105.114871 59.1602293,104.449564 58.7447384,104.034058 C58.3292476,103.618553 57.6639634,103.592855 57.2176611,103.975072 L43.4605446,117.721424 C43.1360657,118.043249 43.0385376,118.529407 43.2137816,118.951488 C43.3890255,119.37357 43.8022058,119.647672 44.2591998,119.645033 Z" id="Path" fill="#FB7E23"></path>
                <path d="M35.1027869,97.945575 L21.3794164,111.691928 C21.0584063,111.966843 20.9185789,112.398502 21.017423,112.809431 C21.116267,113.22036 21.4371,113.541204 21.8480144,113.640051 C22.2589288,113.738899 22.6905721,113.599067 22.9654781,113.278045 L36.6888486,99.5429417 C37.0710521,99.0966236 37.0453551,98.431316 36.6298642,98.0158105 C36.2143734,97.600305 35.5490893,97.5746071 35.1027869,97.9568241 L35.1027869,97.945575 Z" id="Path" fill="#FB7E23"></path>
                <path d="M46.126478,107.338541 C45.687738,106.902388 44.9791564,106.902388 44.5404164,107.338541 L30.7383052,121.084894 C30.3715102,121.348376 30.1978506,121.805687 30.2972979,122.246233 C30.3967451,122.686778 30.7500156,123.025134 31.1944262,123.105485 C31.6388368,123.185835 32.0882134,122.9926 32.3356155,122.614766 L46.126478,108.924659 C46.5626153,108.485903 46.5626153,107.777297 46.126478,107.338541 Z" id="Path" fill="#FB7E23"></path>
                <path d="M95.6206014,59.5187823 C101.777155,59.5187823 106.768028,54.5277335 106.768028,48.3709627 C106.768028,42.214192 101.777155,37.2231432 95.6206014,37.2231432 C89.4640477,37.2231432 84.4731749,42.214192 84.4731749,48.3709627 C84.4855521,54.5225992 89.4691818,59.5064047 95.6206014,59.5187823 Z M95.6206014,39.4617063 C100.533197,39.4617063 104.516219,43.4432006 104.518288,48.3559687 C104.520355,53.2687368 100.540685,57.2535786 95.628091,57.2577211 C90.7154974,57.2618571 86.7291184,53.2837274 86.7229078,48.3709627 C86.7229078,43.454906 90.7047219,39.4679135 95.6206014,39.4617063 L95.6206014,39.4617063 Z" id="Shape" fill="#000000" fill-rule="nonzero"></path>
                <path d="M24.6302804,56.4140414 C34.8231301,56.4140414 43.9614731,50.131402 47.6111298,40.614019 C51.2607865,31.096636 48.6664943,20.3142886 41.0870764,13.4988733 L43.9667345,9.98916626 L45.6765315,11.3952989 C45.9879854,11.6504992 46.4119237,11.7201495 46.7886528,11.5780131 C47.165382,11.4358767 47.4376679,11.1035475 47.5029431,10.7062108 C47.5682182,10.3088741 47.4165658,9.90689472 47.1051118,9.65169443 L41.8857316,5.37705121 C41.4060999,5.11302562 40.8060412,5.2326869 40.4643625,5.66049486 C40.1226837,6.08830281 40.1386347,6.69998925 40.5021458,7.10940662 L42.2231915,8.54928644 L39.3772794,12.0589935 C30.7995084,5.65401159 19.0663454,5.52523058 10.3500678,11.7403962 C1.63379017,17.9555619 -2.06831252,29.0905014 1.19126567,39.2876353 C4.45084386,49.4847691 13.9251876,56.4074773 24.6302804,56.4140414 L24.6302804,56.4140414 Z M24.6302804,9.41546414 C33.6805776,9.41546529 41.8395124,14.8680265 45.3018595,23.2301414 C48.7642065,31.5922563 46.8479542,41.2167591 40.4468187,47.6149019 C34.0456832,54.0130448 24.4205574,55.9245243 16.0604797,52.4578504 C7.70040195,48.9911764 2.25213675,40.8292129 2.25668408,31.7785976 C2.269088,19.4267079 12.2788263,9.41661659 24.6302804,9.40421508 L24.6302804,9.41546414 Z" id="Shape" fill="#000000" fill-rule="nonzero"></path>
                <path d="M24.6302804,49.0009102 C32.7398441,49.0060602 39.7542154,43.3526627 41.4720901,35.4268575 C43.1899647,27.5010523 39.1458243,19.4506142 31.7619336,16.0974064 C31.1965992,15.83958 30.5293029,16.0888807 30.2714856,16.654235 C30.0136683,17.2195893 30.2629601,17.8869091 30.8282945,18.1447356 C37.0249022,20.9517491 40.5529052,27.5811702 39.4198935,34.289089 C38.2868818,40.9970079 32.7772304,46.0998018 26.0024684,46.715711 C19.2277064,47.3316202 12.8882336,43.3060573 10.5642138,36.9124251 C8.240194,30.518793 10.5149337,23.3618313 16.1037928,19.4833738 L15.5863542,21.1819821 C15.4532825,21.5699547 15.5419163,21.9996068 15.8176604,22.3032381 C16.0934045,22.6068693 16.5125471,22.7363472 16.9114899,22.6411345 C17.3104328,22.5459217 17.6259343,22.2411116 17.7348491,21.8456767 L19.1296835,17.4360447 C19.3126334,16.842763 18.9803584,16.213432 18.3872717,16.0299121 L13.9215519,14.6237794 C13.5196758,14.5072313 13.0861515,14.6139422 12.7842833,14.9037153 C12.4824152,15.1934883 12.3580641,15.6223001 12.4580721,16.0286214 C12.55808,16.4349426 12.8672533,16.7570435 13.2691294,16.8735917 L15.158905,17.4585428 C8.8127482,21.6448492 5.96228697,29.4972632 8.14517721,36.7798701 C10.3280675,44.0624769 17.0278067,49.0521097 24.6302804,49.0571555 L24.6302804,49.0009102 Z" id="Path" fill="#FB7E23"></path>
                <path d="M23.505414,35.4907878 L23.505414,36.3232183 C23.505414,36.9444868 24.0090338,37.4481244 24.6302804,37.4481244 C25.251527,37.4481244 25.7551468,36.9444868 25.7551468,36.3232183 L25.7551468,35.4907878 C27.4015405,35.0061369 28.5320025,33.4948988 28.5320025,31.7785976 C28.5320025,30.0622964 27.4015405,28.5510583 25.7551468,28.0664074 L25.7551468,15.6924402 C25.7551468,15.0711717 25.251527,14.5675341 24.6302804,14.5675341 C24.0090338,14.5675341 23.505414,15.0711717 23.505414,15.6924402 L23.505414,28.1226528 C21.8590203,28.6073037 20.7285583,30.1185417 20.7285583,31.8348429 C20.7285583,33.5511441 21.8590203,35.0623822 23.505414,35.5470331 L23.505414,35.4907878 Z M24.6302804,30.1362347 C25.5373004,30.1362347 26.2725854,30.8715456 26.2725854,31.7785976 C26.2725854,32.6856496 25.5373004,33.4209605 24.6302804,33.4209605 C23.7232604,33.4209605 22.9879754,32.6856496 22.9879754,31.7785976 C22.9941076,30.8740979 23.7258126,30.1423671 24.6302804,30.1362347 Z" id="Shape" fill="#000000" fill-rule="nonzero"></path>
                <path d="M18.0048171,6.01824769 L31.2557437,6.01824769 C31.8769903,6.01824769 32.3806102,5.51461007 32.3806102,4.89334158 L32.3806102,1.12490611 C32.3806102,0.503637621 31.8769903,-2.84217094e-14 31.2557437,-2.84217094e-14 L18.0048171,-2.84217094e-14 C17.3835705,-2.84217094e-14 16.8799506,0.503637621 16.8799506,1.12490611 L16.8799506,4.89334158 C16.8799506,5.51461007 17.3835705,6.01824769 18.0048171,6.01824769 Z M19.1296835,2.24981222 L30.1196286,2.24981222 L30.1196286,3.76843547 L19.1296835,3.76843547 L19.1296835,2.24981222 Z" id="Shape" fill="#000000" fill-rule="nonzero"></path>
                <path d="M132.651205,102.760173 L132.651205,102.760173 L132.651205,102.760173 C124.455249,94.5897023 111.205162,94.554555 102.965979,102.68143 C102.831358,102.738848 102.725811,102.848458 102.673514,102.985154 C94.597547,111.219034 94.632623,124.413112 102.752255,132.603932 L102.752255,132.603932 L102.752255,132.603932 C103.190995,133.040085 103.899576,133.040085 104.338316,132.603932 L107.386704,129.555437 C107.674046,129.262057 107.783049,128.837662 107.672655,128.442119 C107.56226,128.046575 107.249238,127.739975 106.851502,127.637811 C106.453766,127.535647 106.031741,127.653441 105.744399,127.946821 L103.494666,130.196633 C100.683214,127.043063 99.0220006,123.030637 98.781476,118.812583 L101.919853,118.812583 C102.5411,118.812583 103.04472,118.308946 103.04472,117.687677 C103.04472,117.066409 102.5411,116.562771 101.919853,116.562771 L98.8602167,116.562771 C99.1053266,112.35122 100.761666,108.344956 103.562158,105.18997 L105.811891,107.439783 C106.024175,107.65035 106.311554,107.767734 106.610546,107.766005 L106.610546,107.766005 C107.114031,107.814688 107.588087,107.521301 107.769143,107.048965 C107.950198,106.576629 107.793719,106.041529 107.386704,105.741174 L105.136971,103.491362 C108.291741,100.680277 112.302532,99.0156605 116.52062,98.7667565 L116.52062,101.905245 C116.52062,102.526513 117.02424,103.030151 117.645486,103.030151 C118.266733,103.030151 118.770353,102.526513 118.770353,101.905245 L118.770353,98.8230018 C122.993299,99.0487399 127.016344,100.693688 130.187747,103.491362 L127.938014,105.741174 C127.617004,106.01609 127.477177,106.447749 127.576021,106.858677 C127.674865,107.269606 127.995698,107.590451 128.406612,107.689298 C128.817527,107.788146 129.24917,107.648313 129.524076,107.327292 L131.773809,105.07748 C134.584795,108.232361 136.249352,112.243293 136.498248,116.46153 L133.35987,116.46153 C132.738624,116.46153 132.235004,116.965167 132.235004,117.586436 C132.235004,118.207704 132.738624,118.711342 133.35987,118.711342 L136.498248,118.711342 C136.439511,119.645685 136.311677,120.574396 136.115793,121.48986 L133.044908,120.657429 C132.445405,120.492793 131.825952,120.84534 131.661322,121.444864 C131.496692,122.044388 131.849226,122.663862 132.448729,122.828498 L135.519614,123.660929 C135.212768,124.565925 134.836701,125.445953 134.394747,126.293209 L131.650073,124.662095 C131.30282,124.409544 130.842089,124.376714 130.462537,124.577475 C130.082985,124.778236 129.850825,125.177566 129.864144,125.606748 C129.877463,126.035931 130.133937,126.420095 130.525207,126.596934 L133.258632,128.216798 C132.794366,128.890009 132.287121,129.532542 131.740063,130.140388 L129.49033,127.890576 C129.044028,127.508359 128.378743,127.534057 127.963253,127.949562 C127.547762,128.365068 127.522065,129.030375 127.904268,129.476693 L130.952656,132.525189 C131.426627,132.949136 132.143488,132.949136 132.617459,132.525189 C140.81312,124.291726 140.81312,110.982387 132.617459,102.748924 L132.651205,102.760173 Z" id="Path" fill="#FB7E23"></path>
                <path d="M127.060618,121.017399 L121.06508,117.05773 C120.816026,115.554678 119.631332,114.380697 118.126125,114.14535 C116.620918,113.910004 115.134432,114.666334 114.438493,116.021631 C113.742554,117.376928 113.994009,119.025745 115.062294,120.111969 C116.13058,121.198192 117.774933,121.477016 119.141559,120.803667 L126.093233,123.053479 C126.632316,123.237512 127.223871,122.989505 127.470553,122.476044 C127.717235,121.962583 127.541169,121.345762 127.060618,121.039897 L127.060618,121.017399 Z M116.441879,117.867662 C116.382913,117.54685 116.454202,117.215763 116.639974,116.947651 C116.825746,116.679538 117.110688,116.4965 117.431762,116.439031 L117.656735,116.439031 C118.284786,116.448915 118.803792,116.931852 118.858831,117.557587 C118.913871,118.183321 118.48714,118.749451 117.87046,118.868829 C117.548008,118.927575 117.21546,118.854769 116.947049,118.666664 C116.678638,118.478558 116.496711,118.190813 116.441879,117.867662 L116.441879,117.867662 Z" id="Shape" fill="#000000" fill-rule="nonzero"></path>
                <path d="M117.645486,91.308629 C106.989159,91.308629 97.3823341,97.7286743 93.3053858,107.57462 C89.2284376,117.420565 91.4844127,128.753031 99.0211828,136.286849 C106.557953,143.820666 117.890982,146.071881 127.734838,141.990584 C137.578694,137.909288 143.994408,128.299383 143.989861,117.642681 C143.971254,103.102108 132.185553,91.3210237 117.645486,91.308629 L117.645486,91.308629 Z M117.645486,141.73817 C104.338384,141.73817 93.5508471,130.950252 93.5508471,117.642681 C93.5508471,104.33511 104.338384,93.5471921 117.645486,93.5471921 C130.952588,93.5471921 141.740125,104.33511 141.740125,117.642681 C141.727723,130.945111 130.947447,141.725767 117.645486,141.73817 Z" id="Shape" fill="#000000" fill-rule="nonzero"></path>
            </g>
        </g>
    </g>
</svg>