<?xml version="1.0" encoding="UTF-8"?>
<svg width="18px" height="16px" viewBox="0 0 18 16" version="1.1" xmlns="http://www.w3.org/2000/svg" xmlns:xlink="http://www.w3.org/1999/xlink">
    <!-- Generator: sketchtool 57.1 (101010) - https://sketch.com -->
    <title>7B5BB7AE-0241-498A-A1CB-614C30CF076D@1.00x</title>
    <desc>Created with sketchtool.</desc>
    <g id="Symbols" stroke="none" stroke-width="1" fill="none" fill-rule="evenodd">
        <g id="UI-/-Graph-Selector" transform="translate(-176.000000, -16.000000)" fill="#FB7E23">
            <g id="Insight-Icon" transform="translate(176.000000, 16.000000)">
                <path d="M9.05885057,13.3480212 C9.28004873,13.3480212 9.46496279,13.5146266 9.50332396,13.7340122 L9.51062436,13.8185335 L9.51062436,15.5299175 C9.51062436,15.78914 9.3076985,16 9.05885057,16 C8.83691692,16 8.6517577,15.8337342 8.61335113,15.6144241 L8.6060425,15.5299175 L8.6060425,13.8178887 C8.6060425,13.5590962 8.80834779,13.3480212 9.05885057,13.3480212 Z M13.5545102,12.7808814 L13.6254065,12.8411833 L14.789386,14.0513179 C14.9656274,14.23488 14.9656274,14.5325774 14.789386,14.7161396 C14.6358987,14.8760042 14.3965727,14.8959873 14.2210714,14.7760888 L14.1502005,14.7161396 L12.9862211,13.5053602 C12.8097728,13.3222279 12.8097728,13.0247454 12.9862211,12.8411833 C13.1404323,12.6803783 13.379057,12.6602777 13.5545102,12.7808814 Z M4.937449,12.8405384 C5.09147925,13.0011553 5.11073303,13.2488279 4.99521035,13.4312087 L4.937449,13.5049303 L3.77243527,14.7152798 C3.59702127,14.898842 3.31052553,14.898842 3.13366354,14.7152798 C2.97963329,14.5546629 2.96037951,14.3068258 3.07590219,14.1246919 L3.13366354,14.0511029 L4.29784985,12.8405384 C4.47388441,12.6576211 4.76079387,12.6576211 4.937449,12.8405384 Z M9.00093085,3.85738467 C10.0401761,3.85738467 11.1594746,4.23955507 12.2382293,4.96284156 C13.0207661,5.48687498 13.7997862,6.21188103 14.322098,6.90142132 C14.5748762,7.23587415 14.7130561,7.61073645 14.7225715,7.98602864 L14.7225715,8.01397136 C14.7130561,8.38947849 14.5748762,8.76434079 14.3227185,9.09771891 C13.7997862,9.78811897 13.0203523,10.513125 12.2380225,11.0369435 C11.1590609,11.76023 10.0387281,12.1421854 8.99886229,12.1421854 C7.95878966,12.1421854 6.83866371,11.76023 5.75928841,11.0369435 C4.97675167,10.5129101 4.19752462,9.78790403 3.67541975,9.09793385 C3.42367583,8.76154652 3.28673707,8.38711411 3.27742855,8.01375641 L3.27742855,7.9858137 C3.28673707,7.61224106 3.42367583,7.23780865 3.67355804,6.90400064 C4.19773148,6.21188103 4.97716538,5.48708993 5.76073641,4.96262662 C6.84031856,4.23977001 7.96085822,3.85738467 9.00093085,3.85738467 Z M9.00093085,4.92135737 C7.00497604,4.92135737 5.17057586,6.64692764 4.47967639,7.5591499 C4.37024949,7.70552675 4.30777894,7.85835192 4.30074583,8 C4.30777894,8.14143314 4.37024949,8.2946882 4.48174495,8.44342943 C5.17078272,9.35307236 7.00435547,11.0790725 8.99886229,11.0790725 C10.9929554,11.0790725 12.8269419,9.35350224 13.5180482,8.44106505 C13.6297505,8.29382842 13.6922211,8.14143314 13.6992542,8.00021494 C13.6920142,7.85899675 13.6295437,7.70681641 13.5178413,7.55893495 C12.8269419,6.64692764 10.9933691,4.92135737 9.00093085,4.92135737 Z M7.68036131,6.63016201 C8.40849489,5.8735592 9.58881598,5.8735592 10.3171564,6.63016201 C11.04529,7.38676482 11.04529,8.61323518 10.3171564,9.36962304 C9.58881598,10.1264408 8.40849489,10.1264408 7.68036131,9.36962304 C6.95222773,8.61323518 6.95222773,7.38697977 7.68036131,6.63016201 Z M9.72368618,7.24662135 C9.32362642,6.83070475 8.67430502,6.83070475 8.27383155,7.24662135 C7.87356494,7.6627529 7.87356494,8.3372471 8.27383155,8.75337865 C8.67430502,9.16929525 9.32341956,9.16929525 9.72368618,8.75337865 C10.1243665,8.3372471 10.1243665,7.6627529 9.72368618,7.24662135 Z M2.09979659,7.53013246 C2.34905823,7.53013246 2.5519841,7.7409925 2.5519841,7.99935517 C2.5519841,8.23015724 2.39197449,8.42240738 2.18106182,8.46228022 L2.09979659,8.46986754 L0.452187504,8.46986754 C0.203339577,8.46986754 -5.32907052e-15,8.26008222 -5.32907052e-15,7.99935517 C-5.32907052e-15,7.76950841 0.160499928,7.57753424 0.371521557,7.53771093 L0.452808072,7.53013246 L2.09979659,7.53013246 Z M17.5476056,7.53013246 C17.7970741,7.53013246 18,7.7409925 18,7.99935517 C18,8.23015724 17.8399904,8.42240738 17.6289324,8.46228022 L17.5476056,8.46986754 L15.9002034,8.46986754 C15.6511486,8.46986754 15.447809,8.26008222 15.447809,7.99935517 C15.447809,7.76950841 15.6079821,7.57753424 15.8192216,7.53771093 L15.9006171,7.53013246 L17.5476056,7.53013246 Z M3.77243527,1.28493511 L4.937449,2.49506972 C5.11348357,2.67841694 5.11348357,2.97611435 4.937449,3.15946157 C4.76079387,3.34259384 4.47388441,3.34259384 4.29784985,3.15946157 L3.13366354,1.94932696 C2.95762897,1.76597974 2.95762897,1.46849727 3.13366354,1.28493511 C3.31052553,1.10115801 3.59702127,1.10115801 3.77243527,1.28493511 Z M14.789386,1.28386039 C14.9656274,1.4676375 14.9656274,1.76511997 14.789386,1.94868212 L13.6254065,3.15903168 C13.4489582,3.34259384 13.1624625,3.34259384 12.9862211,3.15903168 C12.8097728,2.97546952 12.8097728,2.67798705 12.9862211,2.49463983 L14.1502005,1.28386039 C14.326442,1.10115801 14.613972,1.10115801 14.789386,1.28386039 Z M9.05885057,3.99680289e-14 C9.3076985,3.99680289e-14 9.51062436,0.210860045 9.51062436,0.470082485 L9.51062436,2.1816814 C9.51062436,2.44133373 9.3076985,2.65197883 9.05885057,2.65197883 C8.80834779,2.65197883 8.6060425,2.4406889 8.6060425,2.18211129 L8.6060425,0.470082485 C8.6060425,0.210645101 8.80917522,3.99680289e-14 9.05885057,3.99680289e-14 Z"></path>
            </g>
        </g>
    </g>
</svg>