<?xml version="1.0" encoding="UTF-8"?>
<svg width="170px" height="40px" viewBox="0 0 170 40" version="1.1" xmlns="http://www.w3.org/2000/svg" xmlns:xlink="http://www.w3.org/1999/xlink">
    <!-- Generator: sketchtool 57.1 (101010) - https://sketch.com -->
    <title>7A25B04F-7039-4E6E-902B-D184F3703466@1.00x</title>
    <desc>Created with sketchtool.</desc>
    <g id="Symbols" stroke="none" stroke-width="1" fill="none" fill-rule="evenodd">
        <g id="UI-/-Header" transform="translate(-16.000000, -17.000000)" fill-rule="nonzero">
            <g id="Group-2" transform="translate(16.000000, 17.000000)">
                <g id="logo-/-arundo-/-white" fill="#FFFFFF">
                    <path d="M25.85,21.3009677 L22.1490323,21.3009677 L19.7964516,16.7341935 L6.05,16.7341935 L3.70096774,21.3009677 L0.0177419355,21.3009677 L10.8154839,0.894193548 L15.0735484,0.894193548 L25.85,21.3009677 Z M18.1535484,13.6896774 L12.9551613,3.80387097 L7.69290323,13.6896774 L18.1535484,13.6896774 Z M51.8951613,21.3009677 L47.96,21.3009677 L42.4387097,13.5229032 L32.1483871,13.5229032 L32.1483871,21.3009677 L28.7596774,21.3009677 L28.7596774,0.894193548 L44.8551613,0.894193548 C46.9983871,0.894193548 48.6803226,1.47139785 49.9009677,2.62580645 C51.1216129,3.78021505 51.7331183,5.34505376 51.7354839,7.32032258 C51.7354839,9.0472043 51.2375269,10.438172 50.2416129,11.4932258 C49.2163963,12.5217464 47.8756902,13.1764807 46.4341935,13.3525806 L51.8951613,21.3009677 Z M44.3406452,10.4783871 C46.9427957,10.4783871 48.2497849,9.42569892 48.2616129,7.32032258 C48.2616129,5.06827957 46.8517204,3.94107527 44.0319355,3.93870968 L32.1341935,3.93870968 L32.1341935,10.4783871 L44.3406452,10.4783871 Z M79.4377419,14.7080645 C79.4377419,16.8370968 78.4039785,18.5556989 76.3364516,19.863871 C74.2310753,21.235914 71.4219355,21.9219355 67.9090323,21.9219355 C64.396129,21.9219355 61.5668817,21.235914 59.4212903,19.863871 C57.356129,18.5296774 56.3235484,16.8110753 56.3235484,14.7080645 L56.3235484,0.894193548 L59.7051613,0.894193548 L59.7051613,13.8883871 C59.65939,15.40827 60.4713046,16.8250061 61.8058065,17.553871 C63.203871,18.3983871 65.2382796,18.8206452 67.9090323,18.8206452 C70.5797849,18.8206452 72.6047312,18.3983871 73.983871,17.553871 C75.304443,16.8144055 76.103412,15.4011607 76.056129,13.8883871 L76.056129,0.894193548 L79.4377419,0.894193548 L79.4377419,14.7080645 Z M108.598387,21.3009677 L104.375806,21.3009677 L88.7948387,4.56677419 L88.7948387,21.3009677 L85.4132258,21.3009677 L85.4132258,0.894193548 L89.6145161,0.894193548 L105.202581,17.6390323 L105.202581,0.894193548 L108.598387,0.894193548 L108.598387,21.3009677 Z M127.624839,0.894193548 C131.173226,0.894193548 133.98828,1.84043011 136.07,3.73290323 C138.15172,5.62537634 139.190215,8.15774194 139.185484,11.33 C139.237303,14.1280148 138.024999,16.8002964 135.885484,18.6041935 C133.836882,20.4067742 131.299785,21.3080645 128.274194,21.3080645 L114.701613,21.3080645 L114.701613,0.894193548 L127.624839,0.894193548 Z M128.558065,18.26 C130.426742,18.3257581 132.238801,17.6125008 133.56129,16.2906452 C134.867097,14.9801075 135.52,13.2958065 135.52,11.2377419 C135.52,9.05193548 134.819785,7.2883871 133.419355,5.94709677 C132.018925,4.60580645 130.182043,3.93634409 127.90871,3.93870343 L118.083226,3.93870343 L118.083226,18.26 L128.558065,18.26 Z M169.162261,11.0709677 C169.162261,14.4135484 167.790215,17.1197849 165.046129,19.1896774 C162.640323,20.9922581 159.652581,21.8935484 156.082903,21.8935484 C152.473011,21.8935484 149.466344,20.9827957 147.062903,19.1612903 C144.321183,17.0913978 142.94914,14.3946237 142.946774,11.0709677 C142.946774,7.79935484 144.337742,5.11204301 147.119677,3.00903226 C149.560968,1.16860215 152.54871,0.247204301 156.082903,0.244834166 C159.617097,0.242473118 162.595376,1.16387097 165.017742,3.00903226 C167.783118,5.1144086 169.164624,7.80172043 169.162261,11.0709677 Z M165.63871,11.0709677 C165.63871,8.68172043 164.623871,6.74548387 162.594194,5.26225806 C160.848387,3.98483871 158.677957,3.34612903 156.082903,3.34612903 C153.244194,3.34612903 150.933011,4.07473118 149.149355,5.53193548 C147.465147,6.88508226 146.480732,8.92541019 146.469623,11.0858367 C146.458701,13.2462631 147.422258,15.2965234 149.092581,16.6667742 C150.838387,18.086129 153.168495,18.7958065 156.082903,18.7958065 C158.997312,18.7958065 161.313226,18.086129 163.030645,16.6667742 C164.734579,15.3177746 165.701414,13.2433529 165.63871,11.0709677 Z" id="Shape"></path>
                </g>
                <path d="M96.235,39 L96.235,29.757 L97.301,29.757 L100.46,36.699 L103.619,29.757 L104.685,29.757 L104.685,39 L103.606,39 L103.606,32.227 L101.006,37.973 L99.914,37.973 L97.314,32.227 L97.314,39 L96.235,39 Z M113.169667,39 L112.207667,36.231 L108.827667,36.231 L107.865667,39 L106.721667,39 L110.088667,29.757 L110.946667,29.757 L114.313667,39 L113.169667,39 Z M109.204667,35.165 L111.830667,35.165 L110.517667,31.382 L109.204667,35.165 Z M116.350333,39 L116.350333,29.757 L120.198333,29.757 L121.407333,30.069 L122.369333,31.031 L122.746333,32.344 L122.395333,33.618 L121.758333,34.554 L120.991333,34.957 L122.785333,39 L121.589333,39 L119.912333,35.152 L117.429333,35.152 L117.429333,39 L116.350333,39 Z M117.429333,34.086 L120.250333,34.086 L121.030333,33.709 L121.407333,33.15 L121.628333,32.383 L121.407333,31.603 L120.848333,31.044 L120.081333,30.823 L117.429333,30.823 L117.429333,34.086 Z M130.62,39 L129.658,36.231 L126.278,36.231 L125.316,39 L124.172,39 L127.539,29.757 L128.397,29.757 L131.764,39 L130.62,39 Z M126.655,35.165 L129.281,35.165 L127.968,31.382 L126.655,35.165 Z M134.567667,39 L134.567667,30.823 L132.110667,30.823 L132.110667,29.757 L138.155667,29.757 L138.155667,30.823 L135.646667,30.823 L135.646667,39 L134.567667,39 Z M140.257333,39 L140.257333,29.757 L141.336333,29.757 L141.336333,33.553 L145.535333,33.553 L145.535333,29.757 L146.614333,29.757 L146.614333,39 L145.535333,39 L145.535333,34.619 L141.336333,34.619 L141.336333,39 L140.257333,39 Z M152.252,39.104 L150.861,38.493 L149.99,37.609 L149.418,36.452 L149.171,35.334 L149.171,33.423 L149.418,32.279 L149.99,31.122 L150.887,30.251 L152.252,29.653 L153.682,29.653 L155.047,30.251 L155.944,31.122 L156.516,32.279 L156.763,33.423 L156.763,35.334 L156.516,36.452 L155.944,37.609 L155.073,38.493 L153.682,39.104 L152.252,39.104 Z M152.46,38.038 L153.5,38.038 L154.436,37.596 L155.047,36.972 L155.489,36.114 L155.684,35.243 L155.684,33.501 L155.489,32.63 L155.047,31.759 L154.423,31.135 L153.5,30.719 L152.434,30.719 L151.511,31.135 L150.887,31.759 L150.445,32.63 L150.25,33.514 L150.25,35.256 L150.445,36.101 L150.887,36.972 L151.498,37.596 L152.46,38.038 Z M159.319667,39 L159.319667,29.757 L160.242667,29.757 L165.364667,37.245 L165.364667,29.757 L166.443667,29.757 L166.443667,39 L165.286667,39 L160.398667,31.824 L160.398667,39 L159.319667,39 Z" id="MARATHON" fill="#FB7E23"></path>
            </g>
        </g>
    </g>
</svg>