<svg width="16" height="16" viewBox="0 0 36 36" fill="none" xmlns="http://www.w3.org/2000/svg">
<path d="M25.3542 22.4167H23.8071L23.2588 21.8879C25.1779 19.6554 26.3333 16.7571 26.3333 13.6042C26.3333 6.57375 20.6346 0.875 13.6042 0.875C6.57375 0.875 0.875 6.57375 0.875 13.6042C0.875 20.6346 6.57375 26.3333 13.6042 26.3333C16.7571 26.3333 19.6554 25.1779 21.8879 23.2588L22.4167 23.8071V25.3542L32.2083 35.1263L35.1263 32.2083L25.3542 22.4167ZM13.6042 22.4167C8.72792 22.4167 4.79167 18.4804 4.79167 13.6042C4.79167 8.72792 8.72792 4.79167 13.6042 4.79167C18.4804 4.79167 22.4167 8.72792 22.4167 13.6042C22.4167 18.4804 18.4804 22.4167 13.6042 22.4167Z" fill="black"/>
</svg>
