<?xml version="1.0" encoding="UTF-8"?>
<svg width="16px" height="16px" viewBox="0 0 16 16" version="1.1" xmlns="http://www.w3.org/2000/svg" xmlns:xlink="http://www.w3.org/1999/xlink">
    <!-- Generator: sketchtool 57.1 (101010) - https://sketch.com -->
    <title>1C03405B-0058-41E1-91B1-8673C4514992@1.00x</title>
    <desc>Created with sketchtool.</desc>
    <g id="Graph-Concept" stroke="none" stroke-width="1" fill="none" fill-rule="evenodd">
        <g id="Graph" transform="translate(-1276.000000, -203.000000)" fill="#FFFFFF" fill-rule="nonzero">
            <g id="Group-11" transform="translate(1276.000000, 203.000000)">
                <path d="M5.62424242,13.8181818 C5.81515152,13.8181818 5.96893939,13.9295455 5.98816288,14.1035511 L5.98787879,14.1818182 L5.98787879,15.6363636 C5.98787879,15.830303 5.81818182,16 5.62424242,16 C5.45454545,16 5.30340909,15.8700758 5.26827652,15.7076705 L5.26060606,15.6363636 L5.26060606,14.1818182 C5.26060606,13.9878788 5.43030303,13.8181818 5.62424242,13.8181818 Z M8,13.8181818 C8.16969697,13.8181818 8.32083333,13.9295455 8.35596591,14.1035511 L8.36363636,14.1818182 L8.36363636,15.6363636 C8.36363636,15.830303 8.19393939,16 8,16 C7.83030303,16 7.67916667,15.8700758 7.64403409,15.7076705 L7.63636364,15.6363636 L7.63636364,14.1818182 C7.63636364,13.9878788 7.80606061,13.8181818 8,13.8181818 Z M10.3757576,13.8181818 C10.5454545,13.8181818 10.6780303,13.9295455 10.7247633,14.1035511 L10.7393939,14.1818182 L10.7393939,15.6363636 C10.7393939,15.830303 10.569697,16 10.3757576,16 C10.2060606,16 10.0549242,15.8700758 10.0197917,15.7076705 L10.0121212,15.6363636 L10.0121212,14.1818182 C10.0121212,13.9878788 10.1818182,13.8181818 10.3757576,13.8181818 Z M12.3636364,2.90909091 C12.7414141,2.90909091 13.0377104,3.17390572 13.0844697,3.5354798 L13.0909091,3.63636364 L13.0909091,12.3636364 C13.0909091,12.7414141 12.8260943,13.0377104 12.4645202,13.0844697 L12.3636364,13.0909091 L3.63636364,13.0909091 C3.25858586,13.0909091 2.96228956,12.8260943 2.9155303,12.4645202 L2.90909091,12.3636364 L2.90909091,3.63636364 C2.90909091,3.25858586 3.17390572,2.96228956 3.5354798,2.9155303 L3.63636364,2.90909091 L12.3636364,2.90909091 Z M15.6363636,9.98787879 C15.830303,9.98787879 16,10.1575758 16,10.3515152 C16,10.5212121 15.8700758,10.6723485 15.7076705,10.7074811 L15.6363636,10.7151515 L14.1818182,10.7151515 C13.9878788,10.7151515 13.8181818,10.5454545 13.8181818,10.3515152 C13.8181818,10.1818182 13.9481061,10.0306818 14.1105114,9.99554924 L14.1818182,9.98787879 L15.6363636,9.98787879 Z M1.81818182,9.98787879 C2.03636364,9.98787879 2.18181818,10.1575758 2.18181818,10.3515152 C2.18181818,10.5454545 2.01212121,10.7151515 1.81818182,10.7151515 L1.81818182,10.7151515 L0.363636364,10.7151515 C0.16969697,10.7151515 0,10.5454545 0,10.3515152 C0,10.1575758 0.16969697,9.98787879 0.363636364,9.98787879 L0.363636364,9.98787879 Z M15.6363636,7.63636364 C15.830303,7.63636364 16,7.80606061 16,8 C16,8.16969697 15.8700758,8.32083333 15.7076705,8.35596591 L15.6363636,8.36363636 L14.1818182,8.36363636 C13.9878788,8.36363636 13.8181818,8.19393939 13.8181818,8 C13.8181818,7.83030303 13.9481061,7.67916667 14.1105114,7.64403409 L14.1818182,7.63636364 L15.6363636,7.63636364 Z M0.363636364,7.63636364 L1.81818182,7.63636364 C2.03636364,7.63636364 2.18181818,7.80606061 2.18181818,8 C2.18181818,8.16969697 2.05189394,8.32083333 1.88948864,8.35596591 L1.81818182,8.36363636 L0.363636364,8.36363636 C0.16969697,8.36363636 0,8.19393939 0,8 C0,7.83030303 0.129924242,7.67916667 0.292329545,7.64403409 L0.363636364,7.63636364 L1.81818182,7.63636364 Z M15.6363636,5.28484848 C15.830303,5.28484848 16,5.45454545 16,5.64848485 C16,5.81818182 15.8700758,5.96931818 15.7076705,6.00445076 L15.6363636,6.01212121 L14.1818182,6.01212121 C13.9636364,6.01212121 13.8181818,5.84242424 13.8181818,5.64848485 C13.8181818,5.47878788 13.9481061,5.32765152 14.1105114,5.29251894 L14.1818182,5.28484848 L15.6363636,5.28484848 Z M1.81818182,5.28484848 C2.03636364,5.28484848 2.18181818,5.45454545 2.18181818,5.64848485 C2.18181818,5.81818182 2.05189394,5.96931818 1.88948864,6.00445076 L1.81818182,6.01212121 L0.363636364,6.01212121 C0.16969697,6.01212121 0,5.84242424 0,5.64848485 C0,5.47878788 0.129924242,5.32765152 0.292329545,5.29251894 L0.363636364,5.28484848 L1.81818182,5.28484848 Z M5.62424242,0 C5.79393939,0 5.94507576,0.129924242 5.98020833,0.292329545 L5.98787879,0.363636364 L5.98787879,1.81818182 C5.98787879,2.01212121 5.81818182,2.18181818 5.62424242,2.18181818 C5.45454545,2.18181818 5.3219697,2.07045455 5.27523674,1.89644886 L5.26060606,1.81818182 L5.26060606,0.363636364 C5.26060606,0.16969697 5.43030303,0 5.62424242,0 Z M8,0 C8.16969697,0 8.32083333,0.129924242 8.35596591,0.292329545 L8.36363636,0.363636364 L8.36363636,1.81818182 C8.36363636,2.01212121 8.19393939,2.18181818 8,2.18181818 C7.83030303,2.18181818 7.67916667,2.07045455 7.64403409,1.89644886 L7.63636364,1.81818182 L7.63636364,0.363636364 C7.63636364,0.16969697 7.80606061,0 8,0 Z M10.3757576,0 C10.5454545,0 10.6965909,0.129924242 10.7317235,0.292329545 L10.7393939,0.363636364 L10.7393939,1.81818182 C10.7393939,2.01212121 10.569697,2.18181818 10.3757576,2.18181818 C10.1848485,2.18181818 10.0310606,2.07045455 10.0118371,1.89644886 L10.0121212,1.81818182 L10.0121212,0.363636364 C10.0121212,0.16969697 10.1818182,0 10.3757576,0 Z" id="Combined-Shape"></path>
            </g>
        </g>
    </g>
</svg>