<?xml version="1.0" encoding="UTF-8"?>
<svg width="27px" height="17px" viewBox="0 0 27 17" version="1.1" xmlns="http://www.w3.org/2000/svg" xmlns:xlink="http://www.w3.org/1999/xlink">
    <!-- Generator: sketchtool 59.1 (101010) - https://sketch.com -->
    <title>3977E6E5-1C09-4530-8951-D176174E1F86@1.00x</title>
    <desc>Created with sketchtool.</desc>
    <g id="Investigate" stroke="none" stroke-width="1" fill="none" fill-rule="evenodd">
        <g id="3.2-Filtered-Data-+-Subscribers" transform="translate(-1055.000000, -678.000000)" fill="#FB7E23" fill-rule="nonzero">
            <g id="Group-8" transform="translate(1045.000000, 657.000000)">
                <path d="M13.2271022,30.434936 C13.4656522,30.2798772 13.8017022,30.3236282 13.9850022,30.5176125 C14.6528772,31.225671 15.5885522,31.225671 16.4137272,31.225671 L17.014844,31.2254613 C17.7965906,31.2225255 18.6527388,31.1784886 19.2773022,30.5179342 C19.3923522,30.4014793 19.5402272,30.3487207 19.7381522,30.3487207 L19.7381522,30.3487207 L19.9006522,30.3487207 L20.0530772,30.4474822 C21.7245522,31.5595941 22.7343272,33.4350968 22.7343272,35.4502166 L22.7343272,35.4502166 L22.7336772,36.4880162 C22.7336772,36.8077846 22.4701022,37.0683604 22.1470522,37.0683604 L22.1470522,37.0683604 L11.1149272,37.0683604 C10.7912272,37.0683604 10.5283022,36.8081063 10.5283022,36.4876945 L10.5283022,36.4876945 L10.5283022,35.4502166 C10.5283022,33.4354185 11.5371022,31.5605592 13.2271022,30.434936 Z M27.0220522,30.4352577 C27.2599522,30.2798772 27.5979522,30.3242716 27.7812522,30.519221 C28.4478272,31.2259927 29.3835022,31.2259927 30.2086772,31.2259927 L30.8097938,31.225783 C31.5915377,31.2228472 32.4476455,31.1788103 33.0716022,30.5182559 C33.1749522,30.4056614 33.3267272,30.348399 33.5311522,30.348399 L33.5311522,30.348399 L33.6777272,30.348399 L33.8236522,30.4310756 C35.5185272,31.5592725 36.5283022,33.4347751 36.5283022,35.4502166 L36.5283022,35.4502166 L36.5283022,36.4876945 C36.5283022,36.8077846 36.2647272,37.0683604 35.9416772,37.0683604 L35.9416772,37.0683604 L24.9095522,37.0683604 C24.5858522,37.0683604 24.3229272,36.8081063 24.3229272,36.4876945 L24.3229272,36.4876945 L24.3229272,35.4505383 C24.3229272,33.4357402 25.3317272,31.5608809 27.0220522,30.4352577 Z M30.4277272,21.0683604 C33.0963022,21.0683604 35.2679522,23.2176286 35.2679522,25.8590955 C35.2679522,28.5008842 33.0963022,30.6501523 30.4277272,30.6501523 C27.7585022,30.6501523 25.5875022,28.5008842 25.5875022,25.8590955 C25.5875022,23.2176286 27.7591522,21.0683604 30.4277272,21.0683604 Z M16.6327772,21.0683604 C19.3020022,21.0683604 21.4730022,23.2176286 21.4730022,25.8590955 C21.4730022,28.5008842 19.3020022,30.6501523 16.6327772,30.6501523 C13.9642022,30.6501523 11.7935272,28.5008842 11.7932022,25.8590955 C11.7932022,23.2176286 13.9642022,21.0683604 16.6327772,21.0683604 Z" id="subscribers"></path>
            </g>
        </g>
    </g>
</svg>