<?xml version="1.0" encoding="UTF-8"?>
<svg width="16px" height="16px" viewBox="0 0 16 16" version="1.1" xmlns="http://www.w3.org/2000/svg" xmlns:xlink="http://www.w3.org/1999/xlink">
    <!-- Generator: sketchtool 57.1 (101010) - https://sketch.com -->
    <title>33B278C9-9133-4969-A872-6A5BA8D30EF8@1.00x</title>
    <desc>Created with sketchtool.</desc>
    <defs>
        <polygon id="path-1" points="1.0658141e-14 1.0658141e-14 15.9999273 1.0658141e-14 15.9999273 15.9999273 1.0658141e-14 15.9999273"></polygon>
    </defs>
    <g id="Symbols" stroke="none" stroke-width="1" fill="none" fill-rule="evenodd">
        <g id="UI-/-Graph-Selector" transform="translate(-26.000000, -16.000000)">
            <g id="Subsystem-Icon" transform="translate(26.000073, 16.000073)">
                <mask id="mask-2" fill="white">
                    <use xlink:href="#path-1"></use>
                </mask>
                <g id="Clip-2"></g>
                <path d="M8,14.5454545 C7.59963636,14.5454545 7.27272727,14.2181818 7.27272727,13.8181818 C7.27272727,13.4181818 7.59963636,13.0909091 8,13.0909091 C8.4,13.0909091 8.72727273,13.4181818 8.72727273,13.8181818 C8.72727273,14.2181818 8.4,14.5454545 8,14.5454545 M10.6181818,10.3636364 L9.05418182,11.9272727 C8.72727273,11.7454545 8.4,11.6363636 8,11.6363636 C7.59963636,11.6363636 7.27272727,11.7454545 6.94545455,11.8909091 L5.38181818,10.3272727 C5.16363636,10.1090909 4.76363636,10.1090909 4.50872727,10.3272727 C4.29090909,10.5454545 4.29090909,10.9454545 4.50872727,11.2 L6.07272727,12.7636364 C5.92727273,13.0909091 5.81818182,13.4181818 5.81818182,13.8181818 C5.81818182,15.0181818 6.8,16 8,16 C9.2,16 10.1818182,15.0181818 10.1818182,13.8181818 C10.1818182,13.4181818 10.0727273,13.0909091 9.89090909,12.7636364 L11.4545455,11.2 C11.6727273,10.9818182 11.6727273,10.5818182 11.4545455,10.3636364 C11.236,10.1090909 10.8363636,10.1090909 10.6181818,10.3636364 M2.18181818,8.72727273 C1.78145455,8.72727273 1.45454545,8.4 1.45454545,8 C1.45454545,7.6 1.78145455,7.27272727 2.18181818,7.27272727 C2.58181818,7.27272727 2.90909091,7.6 2.90909091,8 C2.90909091,8.4 2.58181818,8.72727273 2.18181818,8.72727273 M2.18181818,5.81818182 C0.981818182,5.81818182 0,6.8 0,8 C0,9.2 0.981818182,10.1818182 2.18181818,10.1818182 C3.38181818,10.1818182 4.36363636,9.2 4.36363636,8 C4.36363636,6.8 3.38181818,5.81818182 2.18181818,5.81818182 M8,1.45454545 C8.4,1.45454545 8.72727273,1.78181818 8.72727273,2.18181818 C8.72727273,2.58181818 8.4,2.90909091 8,2.90909091 C7.59963636,2.90909091 7.27272727,2.58181818 7.27272727,2.18181818 C7.27272727,1.78181818 7.59963636,1.45454545 8,1.45454545 M5.41781818,5.63636364 L6.94545455,4.10909091 C7.27272727,4.25454545 7.59963636,4.36363636 8,4.36363636 C8.4,4.36363636 8.72727273,4.25454545 9.05418182,4.10909091 L10.6181818,5.67272727 C10.8363636,5.89090909 11.236,5.89090909 11.4909091,5.67272727 C11.7090909,5.45454545 11.7090909,5.05454545 11.4909091,4.8 L9.92727273,3.23636364 C10.0727273,2.90909091 10.1818182,2.58181818 10.1818182,2.18181818 C10.1818182,0.981818182 9.2,0 8,0 C6.8,0 5.81818182,0.981818182 5.81818182,2.18181818 C5.81818182,2.58181818 5.92727273,2.90909091 6.10909091,3.23636364 L4.58181818,4.76363636 C4.36363636,4.98181818 4.36363636,5.38181818 4.58181818,5.6 C4.8,5.85454545 5.16363636,5.85454545 5.41781818,5.63636364 M13.8181818,8.72727273 C13.4178182,8.72727273 13.0909091,8.4 13.0909091,8 C13.0909091,7.6 13.4178182,7.27272727 13.8181818,7.27272727 C14.2181818,7.27272727 14.5454545,7.6 14.5454545,8 C14.5454545,8.4 14.2181818,8.72727273 13.8181818,8.72727273 M13.8181818,5.81818182 C12.6181818,5.81818182 11.6363636,6.8 11.6363636,8 C11.6363636,9.2 12.6181818,10.1818182 13.8181818,10.1818182 C15.0181818,10.1818182 16,9.2 16,8 C16,6.8 15.0181818,5.81818182 13.8181818,5.81818182" id="Fill-1" fill="#FB7E23" mask="url(#mask-2)"></path>
            </g>
        </g>
    </g>
</svg>