<?xml version="1.0" encoding="UTF-8"?>
<svg width="12px" height="10px" viewBox="0 0 12 10" version="1.1" xmlns="http://www.w3.org/2000/svg" xmlns:xlink="http://www.w3.org/1999/xlink">
    <!-- Generator: sketchtool 58 (101010) - https://sketch.com -->
    <title>8AE0D447-9BE2-45F7-AD6A-C46FD63107CD@1.00x</title>
    <desc>Created with sketchtool.</desc>
    <g id="Graph-Concept" stroke="none" stroke-width="1" fill="none" fill-rule="evenodd">
        <g id="Graph" transform="translate(-1072.000000, -252.000000)" fill="#FA7F25" fill-rule="nonzero">
            <g id="Group-10-Copy" transform="translate(1064.000000, 245.000000)">
                <g id="Group-6" transform="translate(8.000000, 4.000000)">
                    <path d="M12,3 L12,13 L0,13 L0,3 L12,3 Z M11.5333333,3.38514443 L0.466666667,3.38514443 L0.466666667,12.6011004 L11.5333333,12.6011004 L11.5333333,3.38514443 Z M9.90666667,4.04539202 C10.3466667,3.88033012 10.84,4.11416781 11,4.56808803 C11.16,5.02200825 10.9333333,5.53094911 10.48,5.72352132 C10.3733333,5.7647868 10.2533333,5.77854195 10.1466667,5.77854195 L10.1466667,5.77854195 L8.92,8.21320495 C9.01333333,8.2957359 9.08,8.40577717 9.13333333,8.54332875 C9.29333333,8.99724897 9.06666667,9.50618982 8.62666667,9.67125172 C8.18666667,9.83631362 7.69333333,9.60247593 7.53333333,9.14855571 C7.49333333,9.01100413 7.48,8.87345254 7.49333333,8.73590096 L7.49333333,8.73590096 L4.74666667,7.58046768 C4.66666667,7.64924347 4.58666667,7.7042641 4.48,7.74552957 C4.32,7.80055021 4.16,7.81430536 4,7.77303989 L4,7.77303989 L2.41333333,10.4965612 C2.49333333,10.5790922 2.56,10.6753783 2.6,10.7991747 C2.76,11.2530949 2.53333333,11.7620358 2.09333333,11.9270977 C1.65333333,12.0921596 1.16,11.8583219 1,11.4044017 C0.84,10.9504814 1.06666667,10.4415406 1.50666667,10.2764787 C1.64,10.2352132 1.77333333,10.221458 1.90666667,10.2352132 L1.90666667,10.2352132 L3.52,7.45667125 C3.46666667,7.38789546 3.41333333,7.30536451 3.38666667,7.2090784 C3.22666667,6.75515818 3.45333333,6.24621733 3.89333333,6.08115543 C4.33333333,5.91609354 4.82666667,6.14993122 4.98666667,6.60385144 C5.04,6.75515818 5.05333333,6.90646492 5.02666667,7.05777166 L5.02666667,7.05777166 L7.74666667,8.19944979 C7.84,8.11691884 7.93333333,8.04814305 8.05333333,8.00687758 C8.17333333,7.95185695 8.29333333,7.93810179 8.41333333,7.95185695 L8.41333333,7.95185695 L9.62666667,5.53094911 C9.53333333,5.434663 9.45333333,5.31086657 9.4,5.17331499 C9.24,4.71939477 9.46666667,4.21045392 9.90666667,4.04539202 Z" id="Combined-Shape-Copy"></path>
                </g>
            </g>
        </g>
    </g>
</svg>