<?xml version="1.0" encoding="UTF-8"?>
<svg width="16px" height="16px" viewBox="0 0 16 16" version="1.1" xmlns="http://www.w3.org/2000/svg" xmlns:xlink="http://www.w3.org/1999/xlink">
    <!-- Generator: sketchtool 56.3 (101010) - https://sketch.com -->
    <title>D0C07DC1-1756-4C7B-8D4A-0D223A6747DD@1.00x</title>
    <desc>Created with sketchtool.</desc>
    <g id="Home-(Default)" stroke="none" stroke-width="1" fill="none" fill-rule="evenodd">
        <g id="Default" transform="translate(-1010.000000, -139.000000)" fill="#FB7E23">
            <path d="M1021.4023,152.672727 C1021.75172,152.472727 1022.21149,152.581818 1022.41379,152.927273 C1022.61609,153.272727 1022.48736,153.727273 1022.13793,153.927273 C1020.90575,154.636364 1019.50805,155 1018.09195,155 C1016.67586,155 1015.27816,154.636364 1014.04598,153.927273 C1012.81379,153.218182 1011.8023,152.218182 1011.08506,151 C1010.36782,149.781818 1010,148.4 1010,147 C1010,145.6 1010.36782,144.218182 1011.08506,143 C1011.8023,141.781818 1012.81379,140.781818 1014.04598,140.072727 C1015.27816,139.363636 1016.67586,139 1018.09195,139 C1018.49655,139 1018.82759,139.327273 1018.82759,139.727273 L1018.82759,146.8 L1021.03448,150.581818 C1021.23678,150.927273 1021.10805,151.381818 1020.75862,151.581818 C1020.64828,151.636364 1020.51954,151.672727 1020.3908,151.672727 C1020.13333,151.672727 1019.87586,151.545455 1019.74713,151.309091 L1017.44828,147.363636 C1017.44828,147.345455 1017.42989,147.345455 1017.42989,147.327273 C1017.41149,147.309091 1017.41149,147.272727 1017.3931,147.254545 C1017.3931,147.218182 1017.37471,147.2 1017.37471,147.181818 C1017.37471,147.163636 1017.35632,147.127273 1017.35632,147.109091 C1017.35632,147.090909 1017.35632,147.054545 1017.35632,147.036364 C1017.35632,147.018182 1017.35632,147.018182 1017.35632,147 L1017.35632,140.490909 C1016.45517,140.6 1015.57241,140.872727 1014.78161,141.327273 C1013.77011,141.909091 1012.94253,142.727273 1012.35402,143.727273 C1011.78391,144.727273 1011.47126,145.854545 1011.47126,147 C1011.47126,148.145455 1011.78391,149.272727 1012.35402,150.272727 C1012.94253,151.272727 1013.77011,152.090909 1014.78161,152.672727 C1015.7931,153.236364 1016.93333,153.545455 1018.09195,153.545455 C1019.25057,153.545455 1020.3908,153.236364 1021.4023,152.672727 Z M1018.09195,147.272727 C1018.23908,147.272727 1018.36782,147.145455 1018.36782,147 C1018.36782,146.854545 1018.23908,146.727273 1018.09195,146.727273 C1017.94483,146.727273 1017.81609,146.854545 1017.81609,147 C1017.81609,147.145455 1017.94483,147.272727 1018.09195,147.272727 Z M1021.49425,141.181818 C1021.23678,141.018182 1021.14483,140.690909 1021.29195,140.436364 C1021.38391,140.272727 1021.56782,140.163636 1021.77011,140.163636 C1021.86207,140.163636 1021.95402,140.181818 1022.04598,140.236364 C1022.30345,140.381818 1022.3954,140.727273 1022.24828,140.981818 C1022.15632,141.145455 1021.97241,141.254545 1021.77011,141.254545 C1021.67816,141.254545 1021.58621,141.236364 1021.49425,141.181818 Z M1024.45517,143.909091 C1024.27126,143.909091 1024.08736,143.8 1023.97701,143.636364 C1023.82989,143.381818 1023.92184,143.036364 1024.17931,142.890909 C1024.27126,142.836364 1024.36322,142.818182 1024.45517,142.818182 C1024.65747,142.818182 1024.84138,142.927273 1024.93333,143.090909 C1025.0069,143.218182 1025.02529,143.363636 1024.98851,143.509091 C1024.95172,143.654545 1024.85977,143.763636 1024.73103,143.836364 C1024.63908,143.890909 1024.54713,143.909091 1024.45517,143.909091 Z M1025.44828,147.545455 C1025.14357,147.545455 1024.89655,147.301246 1024.89655,147 C1024.89655,146.698754 1025.14357,146.454545 1025.44828,146.454545 C1025.75298,146.454545 1026,146.698754 1026,147 C1026,147.301246 1025.75298,147.545455 1025.44828,147.545455 Z M1024.73103,150.163636 C1024.85977,150.236364 1024.95172,150.345455 1024.98851,150.490909 C1025.02529,150.636364 1025.0069,150.781818 1024.93333,150.909091 C1024.84138,151.072727 1024.65747,151.181818 1024.45517,151.181818 C1024.36322,151.181818 1024.27126,151.163636 1024.17931,151.109091 C1023.92184,150.963636 1023.82989,150.618182 1023.97701,150.363636 C1024.06897,150.2 1024.25287,150.090909 1024.45517,150.090909 C1024.54713,150.090909 1024.63908,150.109091 1024.73103,150.163636 Z" id="Time-Icon"></path>
        </g>
    </g>
</svg>